<svg width="19" height="19" viewBox="0 0 19 19" fill="none" xmlns="http://www.w3.org/2000/svg">
<path fill-rule="evenodd" clip-rule="evenodd" d="M15.8168 2.72048C14.0764 0.967078 11.7617 0.00102832 9.29586 0C4.2147 0 0.0793683 4.16116 0.0773245 9.27556C0.0766433 10.9105 0.501077 12.5064 1.30782 13.9132L0 18.72L4.88689 17.43C6.23342 18.1692 7.74937 18.5587 9.29211 18.5591H9.29597C14.3766 18.5591 18.5124 14.3976 18.5143 9.28299C18.5153 6.80428 17.5573 4.47376 15.8168 2.72048ZM9.29586 16.9925H9.29268C7.91787 16.992 6.56952 16.6202 5.39296 15.9178L5.1133 15.7507L2.21334 16.5162L2.98738 13.6711L2.80514 13.3794C2.03814 12.1518 1.63313 10.7329 1.63381 9.27614C1.6354 5.02517 5.07265 1.5667 9.29893 1.5667C11.3455 1.56739 13.2693 2.37039 14.7158 3.82775C16.1624 5.28511 16.9586 7.22224 16.9579 9.28242C16.9561 13.5337 13.5191 16.9925 9.29586 16.9925ZM13.4986 11.2181C13.2684 11.102 12.1359 10.5414 11.9247 10.464C11.7137 10.3866 11.56 10.3481 11.4066 10.58C11.2529 10.812 10.8116 11.3341 10.6771 11.4887C10.5427 11.6434 10.4085 11.6629 10.1781 11.5468C9.94773 11.4308 9.20559 11.186 8.32573 10.3963C7.64105 9.78173 7.1788 9.02271 7.04437 8.79077C6.91015 8.5586 7.04323 8.44525 7.14542 8.31774C7.39477 8.00616 7.64445 7.6795 7.72121 7.52491C7.79808 7.3702 7.75959 7.23481 7.70191 7.11883C7.64445 7.00286 7.1838 5.862 6.99191 5.39777C6.80478 4.94599 6.61505 5.00701 6.47357 4.99992C6.33936 4.99318 6.18573 4.99181 6.03211 4.99181C5.87859 4.99181 5.62902 5.04974 5.41783 5.28191C5.20674 5.51397 4.61177 6.07463 4.61177 7.2155C4.61177 8.35636 5.43713 9.45849 5.55226 9.6132C5.6674 9.7679 7.17653 12.109 9.48707 13.1129C10.0366 13.3519 10.4656 13.4944 10.8002 13.6013C11.3521 13.7777 11.854 13.7528 12.251 13.6931C12.6936 13.6265 13.6137 13.1323 13.8058 12.591C13.9977 12.0495 13.9977 11.5855 13.94 11.4887C13.8825 11.3921 13.7289 11.3341 13.4986 11.2181Z" fill="#84A6BA"/>
</svg>
